#!OML:ASF F:\VICON\USERDATA\INSTALL\rory3\rory3.ASF
:FULLY-SPECIFIED
:DEGREES
1
root 1.3188903634857683 18.028389597829904 -29.617082749451768 -4.138768109033159 -2.159096727604755 0.2968018862677484
lfemur -8.904440344055073 -0.6554296864861935 -23.566494252047853
ltibia 22.34690640160872
lfoot -11.912395775142636 -5.416095033396582
ltoes -5.189857379766607
rfemur -18.21759698236807 -0.6707140715607016 21.420406708706388
rtibia 71.20658198635154
rfoot -3.3122768184472164 -3.336207240184186
rtoes 1.0802736834628055
lowerback 11.667786038316466 0.6819302454476143 -0.9316713292083809
upperback 1.2504401909871878 0.8239138305799731 0.7031970166258235
thorax -5.257491981632348 0.4318654519964824 1.129900043594646
lowerneck -16.175396030902498 -2.8010215702108714 -1.5538146087033613
upperneck 24.921086444515197 -3.285043324284774 -0.9240564295170819
head 10.69918627170779 -1.7643412574663058 -0.5248287352004332
lclavicle -1.387428024067241e-15 -1.8436985656384944e-15
lhumerus -32.93529548194542 3.843468964605838 81.33499977140816
lradius 19.86580854827632
lwrist 0.6037975621775509
lhand -28.109197618925847 20.432409057067154
lfingers 7.125019999999999
lthumb -1.491337603578074 50.40700916312878
rclavicle -1.387428024067241e-15 -1.8436985656384944e-15
rhumerus -25.65160604527287 -20.45040338843819 -78.3442953821219
rradius 26.959595417392798
rwrist 4.537952478336342
rhand -18.090200604135546 23.779191883978267
rfingers 7.125019999999999
rthumb 8.183289394073787 -6.042288125075771
2
root 1.322520270614198 17.98229245378135 -28.993381938252284 -4.060268755684911 -0.5752252150901415 0.6014949604115158
lfemur -7.464801244469429 -0.5244530826678693 -24.014093490080118
ltibia 23.540505950877993
lfoot -14.981492247654511 -6.078484039431354
ltoes -5.654916724078731
rfemur -22.383993628658033 -1.9414103187104104 21.23560715078983
rtibia 69.45078175260926
rfoot -6.886832352385136 -3.366867048448371
rtoes 1.1972536108944487
lowerback 12.008182589995313 -0.5318625391980067 -2.6140709247424843
upperback 0.026931772888408062 -0.9509003921811381 1.7773381388827378
thorax -6.646493647350203 -0.3495230174366461 3.5237498481426375
lowerneck -11.838952436137903 -2.1651575687125617 -3.0928798175126744
upperneck 23.92119291099212 -2.124068924111688 -1.0055885323430653
head 9.526316850952535 -1.383716041305152 -0.07245787215409247
lclavicle -1.3874280268842017e-15 -1.843698623095201e-15
lhumerus -34.026593411650026 4.128808407314837 81.90959649405721
lradius 21.755305043014758
lwrist 1.6418339528216537
lhand -28.270196960027242 22.27200405170405
lfingers 7.125019999999999
lthumb -1.6468569674275275 52.24540395735872
rclavicle -1.3874280268842017e-15 -1.843698623095201e-15
rhumerus -29.29490070122229 -16.69870825883686 -77.19779729858337
rradius 27.59769404877212
rwrist 2.9680948750360754
rhand -18.085800637693257 23.354594368722328
rfingers 7.125019999999999
rthumb 8.18752935505379 -6.4668156589254355
3
root 1.322410274915861 17.92299613463507 -28.372783327768232 -4.119038253698015 0.5612013938257105 1.1283206073808936
lfemur -5.521032828569068 -0.16271258819198176 -24.5732924621401
ltibia 24.38540554286021
lfoot -18.18488946019921 -6.791622952209755
ltoes -6.548715365979298
rfemur -25.603491531441804 -2.8387175234430044 20.822507597877895
rtibia 65.38928504375113
rfoot -9.270099494761634 -5.38375204684039
rtoes 0.6101055972586433
lowerback 12.276179892484082 -0.43795516082188995 -2.740260666865815
upperback 0.7477221301156968 -0.8819886569035884 1.2352341482324916
thorax -6.042981589825849 -0.3418590722085803 3.00262210543126
lowerneck -14.608216332856202 -2.7850519736462562 -2.0143971837755976
upperneck 24.252890760872635 -3.203304433240908 -0.8332214178562608
head 10.163695689565062 -1.7633812954299128 -0.3698213637858398
lclavicle -1.3874280463002685e-15 -1.8436985988664935e-15
lhumerus -29.97570061605849 -1.3217410368750446 82.75029170885466
lradius 23.82720116797603
lwrist 4.017527932112284
lhand -27.93429829823038 28.921785572770993
lfingers 7.125019999999999
lthumb -1.3224382931653467 58.897485599970395
rclavicle -1.3874280463002685e-15 -1.8436985988664935e-15
rhumerus -29.613600219295893 -19.830604129410652 -77.02639750760375
rradius 27.442094612534493
rwrist 3.1047846683100686
rhand -18.213999594338002 23.889891228129223
rfingers 7.125019999999999
rthumb 8.063760406641578 -5.936238751180085
4
root 1.3186503460985002 17.878598891079555 -27.730082544394698 -3.8526003896249525 1.8214945309004709 2.010848303465346
lfemur -3.309054070959365 -0.11662978253307354 -25.483791008414144
ltibia 23.985305199154197
lfoot -20.3082865651424 -7.501901819909947
ltoes -6.4113656339274625
rfemur -28.143589977234473 -3.406235833137277 19.933108906226988
rtibia 59.24958818408658
rfoot -11.303497067722722 -7.747236164131678
rtoes 1.038793882087687
lowerback 11.927783410896804 -0.7521180562042911 -3.4875984710005214
upperback 1.1356324491943866 -1.4030413975404348 0.9447363508811566
thorax -5.390410220282922 -0.6021625941812301 3.1906413478623916
lowerneck -15.809700783709232 -2.842010536074784 -1.627363428025844
upperneck 23.998992405911277 -3.4110016433060752 -0.6245457219881909
head 10.29869332531063 -1.7948400724854694 -0.4056073044406323
lclavicle -1.387428047790233e-15 -1.8436985940207308e-15
lhumerus -27.097705726662372 -4.0918957417723005 82.48569315971277
lradius 26.25679673938295
lwrist 5.932753122198058
lhand -27.71429918745677 24.495297832498487
lfingers 7.125019999999999
lthumb -1.1099791787132476 54.472197816873845
rclavicle -1.387428047790233e-15 -1.8436985940207308e-15
rhumerus -30.32069919786095 -21.365902336433226 -76.71429798184741
rradius 27.161995029399016
rwrist 3.062514787854031
rhand -17.77550316745807 23.93359105632793
rfingers 7.125019999999999
rthumb 8.486976827941332 -5.875909071130833
5
root 1.3101405762620564 17.845500944923025 -27.085184704583725 -3.2307252758603866 2.3137419602945117 2.4782267388350543
lfemur -0.9431195711567355 -0.025693405022035876 -25.976290457426337
ltibia 22.682206491047587
lfoot -20.91838635298338 -7.633301512801467
ltoes -4.0247891568306695
rfemur -30.00718775709604 -2.6484878966767456 19.324209877344273
rtibia 50.82149342601063
rfoot -10.800397623289802 -10.04299044501581
rtoes 2.4993515000696584
lowerback 11.758485185412686 -0.7985716720808649 -3.841347650647603
upperback 1.3821776310746345 -1.5054408687128071 0.8532403689409398
thorax -5.021445080859771 -0.658607027043357 3.3013909399701697
lowerneck -17.94707299160268 -3.0964541263604266 -1.5263250325706308
upperneck 24.58078865399202 -3.7820966665639415 -0.5413206889858375
head 10.926082321546131 -1.935574611435779 -0.49018077521303105
lclavicle -1.3874280146851142e-15 -1.84369860440449e-15
lhumerus -23.88751153870985 -5.553812547814037 81.70709765023805
lradius 28.022093576576232
lwrist 6.1058824989943705
lhand -29.159293377405817 22.540003281032128
lfingers 7.125019999999999
lthumb -2.505563458562252 52.505003310807
rclavicle -1.3874280146851142e-15 -1.84369860440449e-15
rhumerus -30.93869826645133 -23.836199257862724 -75.8586993577706
rradius 26.42079645818767
rwrist 3.8554035580000776
rhand -17.50690535967172 24.005690607391468
rfingers 7.125019999999999
rthumb 8.74620461189277 -5.793139502718432
6
root 1.2924709772278233 17.87939884072167 -26.428584450472172 -2.57154045749183 2.270942179125676 2.712996445286223
lfemur 2.2751719631182237 0.09071584268443145 -26.354089644399778
ltibia 19.559008428493783
lfoot -19.95128722091927 -7.27360220659951
ltoes -1.089783653414388
rfemur -30.586688744189587 0.18703897806076242 18.24131161824484
rtibia 40.27859888964151
rfoot -8.30495063729568 -11.703486121721456
rtoes 6.459485105248149
lowerback 11.240790478341292 -1.1010006408857036 -4.346546251365954
upperback 0.5927372009866837 -1.946018969208776 1.1857946950870768
thorax -5.500208768249304 -0.8348043506301528 4.005567853432096
lowerneck -15.438305605137415 -2.85577018921165 -2.2649631564722785
upperneck 23.73199412541833 -3.3252727961397768 -0.40546316342102834
head 10.148795954032968 -1.7887303095091849 -0.2015374085078249
lclavicle -1.3874280026258345e-15 -1.8436986147882494e-15
lhumerus -23.785411253148716 -5.452963086942417 81.16480074091601
lradius 30.27348931282544
lwrist 6.725230953824761
lhand -29.829590741345918 24.675397320409076
lfingers 7.125019999999999
lthumb -3.15292068923999 54.631797349994756
rclavicle -1.3874280026258345e-15 -1.8436986147882494e-15
rhumerus -33.281594778133396 -23.97039910828037 -74.25430191233887
rradius 25.337998571716607
rwrist 4.275382816713799
rhand -17.665804053524607 23.614692820108104
rfingers 7.125019999999999
rthumb 8.592885938574367 -6.190497225971055
7
root 1.2780213415145636 17.846900857397006 -25.75578560543869 -1.8155263665251082 1.995293612887836 2.8145061589196234
lfemur 5.143919993585161 -0.6263936962944803 -26.95448852639678
ltibia 17.12820945189704
lfoot -18.22048904175069 -5.726464498086564
ltoes 3.855058961051633
rfemur -30.52198832903548 4.641149276725737 16.404114627518517
rtibia 29.136305595443826
rfoot -3.9841856692673856 -12.68218366811884
rtoes 8.85665128994826
lowerback 10.768295287891616 -1.007441282794418 -4.098887221124256
upperback 0.6169017040425531 -1.7726896205115876 1.1495550834067112
thorax -5.235702266625436 -0.7640549784497419 3.7843689440863253
lowerneck -17.232882316357372 -2.8361006860727414 -1.9419083522798866
upperneck 23.932092813432934 -3.318112887703666 -0.48640828117425633
head 10.556888765191625 -1.759831431417292 -0.3144080351445394
lclavicle -1.3874280417372562e-15 -1.8436986189417256e-15
lhumerus -21.717115530794167 -5.918831961016443 80.43970487314348
lradius 31.987386295926648
lwrist 7.660458461385582
lhand -32.10368161834505 23.16250154567353
lfingers 7.125019999999999
lthumb -5.348801688568219 53.07500167408771
rclavicle -1.3874280417372562e-15 -1.8436986189417256e-15
rhumerus -34.137693751901516 -26.168196336651 -73.01680384563485
rradius 23.867401374632724
rwrist 6.10028999867994
rhand -18.675895823651558 22.68609813302974
rfingers 7.125019999999999
rthumb 7.617954176505494 -7.156701735419513
